Coordinates
version=1
nRows=29
nColumns=24
inDegrees=yes

Units are S.I. units (second, meters, Newtons, ...)
Angles are in degrees.

endheader
time	pelvis_tilt	pelvis_list	pelvis_rotation	pelvis_tx	pelvis_ty	pelvis_tz	hip_flexion_r	hip_adduction_r	hip_rotation_r	knee_angle_r	ankle_angle_r	subtalar_angle_r	mtp_angle_r	hip_flexion_l	hip_adduction_l	hip_rotation_l	knee_angle_l	ankle_angle_l	subtalar_angle_l	mtp_angle_l	lumbar_extension	lumbar_bending	lumbar_rotation
      6.57000000	      0.15222370	      3.55139049	     -9.05768383	     -0.79735291	      0.67425520	      0.17539859	     -3.50393070	     -3.40018762	     -0.13121143	    -48.79239552	    -34.11760012	    -32.94844564	      0.00000000	     13.39290230	      3.27800192	     -0.19015301	    -13.24793454	      3.31802528	    -14.62707254	      0.00000000	     -7.09680972	    -12.86581533	      8.66491222
      6.58000000	      0.26046725	      3.65303710	     -8.82570773	     -0.78943845	      0.67533777	      0.17459593	     -1.34170502	     -3.17599423	      0.07952991	    -51.99548533	    -33.45548088	    -33.70937038	      0.00000000	     12.33974241	      3.59087063	     -0.14037608	    -12.80446057	      3.99677321	    -14.14095577	      0.00000000	     -7.53956213	    -12.97751158	      7.73508761
      6.59000000	      0.23414060	      3.59523841	     -8.50105284	     -0.78170225	      0.67624679	      0.17383806	      0.89818153	     -2.69548233	      0.25332854	    -54.81843513	    -31.20076331	    -33.87845120	      0.00000000	     11.56181731	      3.69230215	     -0.18408451	    -12.63844086	      4.84143148	    -13.37206025	      0.00000000	     -7.88395101	    -12.87656455	      6.78255173
      6.60000000	      0.36853106	      3.46949430	     -8.04985757	     -0.77401343	      0.67723646	      0.17303496	      2.86737509	     -2.14010074	      0.30782360	    -57.18641227	    -27.95490762	    -33.60522800	      0.00000000	     10.60661312	      3.79197749	      0.16528747	    -12.47272105	      5.58856147	    -12.93425861	      0.00000000	     -8.45726599	    -12.70920015	      5.71519615
      6.61000000	      0.51227096	      3.27534888	     -7.52233574	     -0.76640472	      0.67816412	      0.17221846	      4.76084634	     -1.50602701	      0.28718755	    -59.14818372	    -24.02550178	    -32.89699690	      0.00000000	      9.67178300	      3.83686729	      0.72454141	    -12.36834742	      6.26121037	    -12.73800620	      0.00000000	     -9.06049756	    -12.45266605	      4.65043722
      6.62000000	      0.69326097	      3.04513198	     -6.94427691	     -0.75887448	      0.67903030	      0.17139331	      6.56243890	     -0.85983487	      0.18678686	    -60.72803038	    -19.82277286	    -31.83807051	      0.00000000	      8.72956659	      3.85204497	      1.40448239	    -12.31689701	      6.92559248	    -12.68710323	      0.00000000	     -9.71361302	    -12.15115242	      3.63363000
      6.63000000	      0.88659856	      2.78248700	     -6.30507432	     -0.75141488	      0.67981340	      0.17054812	      8.29033909	     -0.22495559	     -0.02460592	    -61.92480470	    -15.76019588	    -30.64065737	      0.00000000	      7.80658137	      3.82532006	      2.14227053	    -12.31216795	      7.57240408	    -12.65557482	      0.00000000	    -10.38569564	    -11.80494395	      2.65945147
      6.64000000	      1.08081516	      2.51832673	     -5.64170540	     -0.74402604	      0.68048571	      0.16971206	      9.96162578	      0.35150036	     -0.32102561	    -62.75438045	    -12.07205333	    -29.45479941	      0.00000000	      6.91312863	      3.77464907	      2.86245091	    -12.34441845	      8.26246513	    -12.59094884	      0.00000000	    -11.04921324	    -11.45642393	      1.78330232
      6.65000000	      1.26801633	      2.26154863	     -4.97134264	     -0.73670382	      0.68103095	      0.16889820	     11.57733882	      0.85362021	     -0.68503932	    -63.21844233	     -8.89611395	    -28.43551618	      0.00000000	      6.05849097	      3.70241247	      3.52657515	    -12.41654782	      9.00365524	    -12.45162519	      0.00000000	    -11.69243544	    -11.12037477	      1.02183794
      6.66000000	      1.43022086	      2.01360596	     -4.29168371	     -0.72945021	      0.68143596	      0.16813317	     13.14315102	      1.28242237	     -1.11274364	    -63.30784310	     -6.28161126	    -27.68865814	      0.00000000	      5.25790906	      3.60362777	      4.12498084	    -12.51895889	      9.78654674	    -12.22225181	      0.00000000	    -12.30177042	    -10.80271407	      0.35049424
      6.67000000	      1.56592948	      1.78525663	     -3.62881905	     -0.72227254	      0.68169388	      0.16741481	     14.65417577	      1.62681095	     -1.56867484	    -63.02247038	     -4.23723484	    -27.32571549	      0.00000000	      4.51597607	      3.49542707	      4.66175256	    -12.66133060	     10.58349937	    -11.93302454	      0.00000000	    -12.87782865	    -10.50547219	     -0.22759034
      6.68000000	      1.67344673	      1.58497578	     -2.98159929	     -0.71512692	      0.68180031	      0.16676582	     16.09823419	      1.88464077	     -2.03973673	    -62.36855492	     -2.68301306	    -27.33130233	      0.00000000	      3.81970795	      3.38959971	      5.16289089	    -12.82529527	     11.40357744	    -11.63097123	      0.00000000	    -13.40465281	    -10.25597586	     -0.71591945
      6.69000000	      1.72123976	      1.43688589	     -2.39337665	     -0.70800008	      0.68172807	      0.16619275	     17.49974687	      2.05314766	     -2.44956161	    -61.34440384	     -1.73473809	    -27.86608150	      0.00000000	      3.17174089	      3.32903230	      5.75679953	    -12.96679226	     12.18194774	    -11.53335228	      0.00000000	    -13.84398093	    -10.07004840	     -1.11508695
      6.70000000	      1.76061505	      1.32922712	     -1.83934751	     -0.70085323	      0.68153435	      0.16566740	     18.79464503	      2.11444173	     -2.86506763	    -59.97859947	     -0.87147355	    -28.44166732	      0.00000000	      2.53652285	      3.29140535	      6.28285836	    -13.11732033	     12.93492644	    -11.38070553	      0.00000000	    -14.26554855	     -9.92470645	     -1.46983073
      6.71000000	      1.76731467	      1.27005950	     -1.33577077	     -0.69363950	      0.68121159	      0.16520679	     19.98654774	      2.08234417	     -3.24623743	    -58.25595713	     -0.17497201	    -29.12497180	      0.00000000	      1.91829569	      3.28709894	      6.76641300	    -13.24627932	     13.70138016	    -11.21589432	      0.00000000	    -14.61837072	     -9.83445176	     -1.76798146
      6.72000000	      1.79468436	      1.21078863	     -0.88911253	     -0.68633918	      0.68083022	      0.16484787	     20.98062034	      2.04293644	     -3.55224140	    -56.12004092	      0.01442683	    -30.28726488	      0.00000000	      1.29272236	      3.24143405	      6.98098130	    -13.41495437	     14.63088230	    -10.66223246	      0.00000000	    -14.96818724	     -9.74296689	     -2.00192306
      6.73000000	      1.71478601	      1.22918411	     -0.45193544	     -0.67890790	      0.68027710	      0.16447295	     21.93527000	      1.87125086	     -3.84838380	    -53.66078128	      0.27096186	    -31.21429155	      0.00000000	      0.70161920	      3.27930405	      7.36981520	    -13.44646835	     15.33430972	    -10.43393747	      0.00000000	    -15.14968598	     -9.71217966	     -2.27271910
      6.74000000	      1.61359224	      1.31108335	     -0.05777419	     -0.67135188	      0.67961014	      0.16411460	     22.75547587	      1.59150784	     -4.13179224	    -50.88497587	      0.56970367	    -31.83290168	      0.00000000	      0.08409606	      3.37845305	      7.78236110	    -13.41312974	     16.09234920	    -10.36148814	      0.00000000	    -15.26858645	     -9.74850237	     -2.46083677
      6.75000000	      1.54714528	      1.39313332	      0.36244077	     -0.66362242	      0.67892517	      0.16375495	     23.32217076	      1.28520249	     -4.41653153	    -47.70830913	      0.61323626	    -32.47697862	      0.00000000	     -0.60575799	      3.44945647	      8.12829031	    -13.33493206	     16.78168021	    -10.16044297	      0.00000000	    -15.39204546	     -9.75359347	     -2.70934382
      6.76000000	      1.56399595	      1.50227532	      0.71666934	     -0.65571335	      0.67824309	      0.16348878	     23.58191179	      0.99372412	     -4.54203422	    -44.13653125	      0.29877345	    -33.23489062	      0.00000000	     -1.42234864	      3.51523425	      8.27866280	    -13.21105159	     17.42836216	     -9.73050218	      0.00000000	    -15.56546594	     -9.78677838	     -2.85906792
      6.77000000	      1.38472329	      1.72704707	      1.13130378	     -0.64765089	      0.67726155	      0.16310192	     23.90431704	      0.50413857	     -4.74256367	    -40.35127611	      0.35295031	    -33.13831252	      0.00000000	     -2.07140085	      3.71983599	      8.65880359	    -13.05280387	     18.02616313	     -9.58464378	      0.00000000	    -15.46181792	     -9.89502624	     -3.07077398
      6.78000000	      1.28444977	      1.97413509	      1.58169725	     -0.63940027	      0.67625458	      0.16275575	     23.93796578	     -0.01925315	     -4.95244043	    -36.25918287	      0.25434715	    -32.72715213	      0.00000000	     -2.85436392	      3.92012651	      9.05741388	    -12.83526775	     18.58653813	     -9.35513409	      0.00000000	    -15.43993030	    -10.03199485	     -3.29016444
      6.79000000	      1.36817084	      2.24604474	      2.02062805	     -0.63093104	      0.67529165	      0.16246747	     23.58364142	     -0.55259342	     -5.11527412	    -31.91038955	      0.21325180	    -31.86134122	      0.00000000	     -3.88149752	      4.10923523	      9.32403016	    -12.55734421	     19.13207904	     -9.06856523	      0.00000000	    -15.60926836	    -10.16457300	     -3.59344277
      6.80000000	      1.37594239	      2.61793812	      2.48673348	     -0.62230302	      0.67411616	      0.16217038	     23.19193931	     -1.21378660	     -5.31018527	    -27.46195246	      0.30137375	    -30.35923887	      0.00000000	     -4.86604603	      4.39897305	      9.71885260	    -12.26064495	     19.62025157	     -8.83123361	      0.00000000	    -15.67704410	    -10.39891822	     -3.80465823
      6.81000000	      1.36782276	      3.06330448	      3.01176244	     -0.61350208	      0.67278936	      0.16184958	     22.72061146	     -1.98898190	     -5.62833210	    -22.98995614	      0.52018333	    -28.33799892	      0.00000000	     -5.89160199	      4.74359791	     10.22376122	    -11.90398470	     20.06889656	     -8.68310172	      0.00000000	    -15.72658333	    -10.68691002	     -4.09976150
      6.82000000	      1.36149059	      3.57247348	      3.59797568	     -0.60454390	      0.67134626	      0.16151229	     22.19385891	     -2.86503627	     -6.13246695	    -18.61136148	      0.88824718	    -25.83790371	      0.00000000	     -6.96403413	      5.12390316	     10.80498280	    -11.51391885	     20.47488940	     -8.56771042	      0.00000000	    -15.78948133	    -11.02137263	     -4.45139348
      6.83000000	      1.36374212	      4.11795194	      4.24278478	     -0.59544480	      0.66981687	      0.16118776	     21.64934056	     -3.80259364	     -6.89330286	    -14.46209174	      1.41131535	    -22.91399002	      0.00000000	     -8.08000142	      5.49921424	     11.42248535	    -11.10817531	     20.85696039	     -8.41392582	      0.00000000	    -15.87950040	    -11.37842997	     -4.85086739
      6.84000000	      1.37292813	      4.66955763	      4.92407954	     -0.58622106	      0.66823147	      0.16092812	     21.14609554	     -4.74898420	     -7.95418723	    -10.71933550	      2.06983568	    -19.60872201	      0.00000000	     -9.21723827	      5.83214577	     12.01499302	    -10.71734751	     21.22533201	     -8.18031782	      0.00000000	    -15.99520688	    -11.73603295	     -5.27671521
      6.85000000	      1.37932283	      5.18301693	      5.60546557	     -0.57688687	      0.66661772	      0.16079626	     20.74410953	     -5.62789474	     -9.24300972	     -7.54291525	      2.76344452	    -16.10857686	      0.00000000	    -10.33529591	      6.07994717	     12.51105211	    -10.38255652	     21.58211008	     -7.83813490	      0.00000000	    -16.11268775	    -12.05862554	     -5.68186145
